<!-- Generated by IcoMoon.io -->
<svg version="1.1" xmlns="http://www.w3.org/2000/svg" width="32" height="32" viewBox="0 0 32 32">
<title>daoru</title>
<path fill="#ededed" d="M32 5.065c-6.216-3.223-10.13-0.46-14.504 7.597l3.914 2.532c0.23 0.23 0.46 0.46 0.46 0.921 0 0 0 0.23 0 0.23 0 0.23-0.23 0.23-0.46 0.46l-11.050 4.604c-0.46 0-0.921-0.23-1.151-0.691l-1.842-12.662c0-0.23 0-0.691 0.23-0.921s0.691-0.23 0.921 0l3.914 2.532c4.374-8.288 10.59-13.813 19.568-5.295v0.691zM27.165 32h-22.331c-2.532 0-4.835-2.302-4.835-5.295v-21.41c0-2.993 2.302-5.295 4.835-5.295h4.835v2.532h-4.835c-1.381 0-2.532 1.151-2.532 2.763v21.64c0 1.381 1.151 2.763 2.532 2.763h22.101c1.381 0 2.532-1.151 2.532-2.763v-13.583h2.532v13.353c0 2.993-2.072 5.295-4.835 5.295v0z"></path>
</svg>
