<!-- Generated by IcoMoon.io -->
<svg version="1.1" xmlns="http://www.w3.org/2000/svg" width="34" height="32" viewBox="0 0 34 32">
<title>jg-sousuo</title>
<path fill="#8a9199" d="M15.871 4.516c4.221 0.018 7.889 2.371 9.779 5.833l0.029 0.059c0.888 1.608 1.411 3.525 1.411 5.565 0 2.235-0.628 4.323-1.716 6.097l0.029-0.051-0.807 1.346-1.125 1.062c-1.984 1.894-4.678 3.060-7.644 3.060-1.937 0-3.759-0.497-5.343-1.372l0.057 0.029c-3.589-2.016-5.974-5.798-5.974-10.137 0-0.624 0.049-1.236 0.144-1.833l-0.009 0.066c0.798-5.518 5.492-9.711 11.167-9.715h0.001zM15.871 0.221c-0.026 0-0.057 0-0.088 0-8.717 0-15.783 7.066-15.783 15.783s7.066 15.783 15.783 15.783c1.014 0 2.007-0.096 2.968-0.279l-0.099 0.016c3.009-0.587 5.625-1.984 7.692-3.953l-0.006 0.006 4.352 3.671c0.357 0.302 0.823 0.486 1.332 0.486 0.654 0 1.237-0.303 1.616-0.777l0.003-0.004c0.301-0.369 0.484-0.845 0.484-1.364 0-0.658-0.294-1.247-0.757-1.644l-0.003-0.002-4.374-3.671c1.446-2.367 2.303-5.232 2.303-8.297 0-2.809-0.719-5.449-1.984-7.748l0.042 0.083c-2.644-4.834-7.682-8.065-13.477-8.097h-0.004z"></path>
</svg>
