<!-- Generated by IcoMoon.io -->
<svg version="1.1" xmlns="http://www.w3.org/2000/svg" width="33" height="32" viewBox="0 0 33 32">
<title>LOGO</title>
<path fill="#fff" d="M20.658 19.281v0.558c0 0.003 0 0.007 0 0.011 0 0.362-0.289 0.656-0.648 0.665h-6.732c-0.36-0.009-0.649-0.304-0.649-0.665 0-0.004 0-0.008 0-0.011v0.001-0.558h-12.627v9.943c0 0.019-0.001 0.041-0.001 0.063 0 1.468 1.171 2.663 2.63 2.702h27.949c1.46-0.033 2.632-1.224 2.632-2.689 0-0.026 0-0.053-0.001-0.079v0.004-9.943h-12.552zM12.629 17.228v-0.558c0-0.002 0-0.004 0-0.006 0-0.363 0.288-0.658 0.648-0.67h6.732c0.36 0.009 0.649 0.304 0.649 0.665 0 0.004 0 0.008 0 0.011v-0.001 0.558h12.552v-9.67c0.001-0.027 0.002-0.059 0.002-0.091 0-1.455-1.162-2.639-2.609-2.674h-7.715v-2.575c0.001-0.020 0.001-0.043 0.001-0.066 0-1.119-0.85-2.039-1.939-2.152l-0.009-0.001h-8.623c-1.098 0.112-1.947 1.032-1.947 2.15 0 0.024 0 0.048 0.001 0.072v-0.003 2.575h-7.731c-1.463 0.038-2.635 1.233-2.635 2.702 0 0.022 0 0.044 0.001 0.066v-0.003 9.67h12.627zM12.703 2.776c0-0.004 0-0.009 0-0.014 0-0.267 0.216-0.484 0.483-0.484h6.86c0.267 0.005 0.482 0.222 0.482 0.49 0 0.003 0 0.006 0 0.009v0 1.993h-7.824v-1.993z"></path>
</svg>
