<!-- Generated by IcoMoon.io -->
<svg version="1.1" xmlns="http://www.w3.org/2000/svg" width="32" height="32" viewBox="0 0 32 32">
<title>lunhuan</title>
<path d="M9.227 4.712l0.216 0.215v1.411l-0.216 0.215h-4.974c-1.252 0-2.285 0.957-2.39 2.176l-0.009 0.205v14.635c0 1.243 0.964 2.269 2.192 2.373l0.207 0.009 8.138-0.001-0.012-2.593c0-0.976 0.671-1.477 1.489-1.192l0.155 0.063 0.158 0.081 5.343 3.006c0.904 0.504 0.952 1.394 0.148 1.952l-0.161 0.101-0.39 0.222-0.187 0.188-0.090-0.029-4.618 2.681c-0.9 0.533-1.711 0.133-1.797-0.838l-0.008-0.178-0.014-1.623-8.156 0.001c-2.175 0-3.978-1.633-4.224-3.731l-0.022-0.244-0.007-0.248v-14.635c0-2.242 1.773-4.086 4.003-4.216l0.249-0.007h4.975zM20.721 2.422l0.008 0.177-0.014 2.112h7.060c2.192 0 3.994 1.638 4.205 3.732l0.017 0.244 0.002 0.247v14.648c0 2.242-1.773 4.086-4.003 4.216l-0.249 0.007h-3.838l-0.216-0.215v-1.411l0.216-0.215h3.838c1.252 0 2.285-0.957 2.39-2.176l0.009-0.205v-14.635c0-1.243-0.964-2.269-2.192-2.373l-0.207-0.009-7.064-0.001-0.011 2.115c0 1.034-0.756 1.514-1.646 1.1l-0.158-0.082-5.289-3.077c-0.894-0.529-0.937-1.404-0.142-1.963l0.16-0.102 5.332-3.007c0.915-0.502 1.706-0.098 1.792 0.872z"></path>
</svg>
