<!-- Generated by IcoMoon.io -->
<svg version="1.1" xmlns="http://www.w3.org/2000/svg" width="35" height="32" viewBox="0 0 35 32">
<title>overview</title>
<path d="M31.641 0.016h-27.909c-1.076 0.008-2.046 0.455-2.741 1.171l-0.001 0.001c-0.612 0.593-0.991 1.422-0.991 2.34 0 0.075 0.003 0.15 0.008 0.224l-0.001-0.010v18.641c0.007 1.080 0.454 2.054 1.171 2.753l0.001 0.001c0.7 0.718 1.674 1.165 2.752 1.172h12.561v3.14h-7.651c-0.398 0-0.598 0.199-0.984 0.398s-0.398 0.586-0.398 0.972c0.051 0.625 0.546 1.12 1.167 1.171h17.673c0.398 0 0.586-0.199 0.984-0.398 0.236-0.255 0.383-0.596 0.387-0.972v-0.001c-0.046-0.628-0.544-1.125-1.167-1.171h-7.655v-3.339h12.56c0.010 0 0.023 0 0.035 0 2.051 0 3.714-1.663 3.714-3.714 0-0.004 0-0.008 0-0.013v0.001-18.641c-0.009-1.076-0.456-2.045-1.171-2.741l-0.001-0.001c-0.527-0.608-1.301-0.99-2.163-0.99-0.063 0-0.126 0.002-0.188 0.006h0.008zM31.056 23.765h-26.737c-0.036 0.003-0.079 0.004-0.121 0.004-1.022 0-1.851-0.829-1.851-1.851 0-0.043 0.001-0.085 0.004-0.127v0.006-17.469c-0.003-0.036-0.004-0.079-0.004-0.121 0-1.022 0.829-1.851 1.851-1.851 0.043 0 0.085 0.001 0.127 0.004h26.942c0.015 0 0.033-0.001 0.051-0.001 1.022 0 1.851 0.829 1.851 1.851 0 0.041-0.001 0.083-0.004 0.123v-0.006 17.469c-0.088 1.105-1.006 1.969-2.126 1.969-0.010 0-0.021 0-0.031 0h0.002z"></path>
<path d="M15.121 21.012c0.628-0.046 1.125-0.544 1.171-1.167v-11.193c-0.046-0.628-0.544-1.125-1.167-1.171h-0.004c-0.625 0.051-1.12 0.546-1.171 1.167v11.194c0 0.647 0.525 1.172 1.172 1.172v0zM25.912 21.012c0.628-0.046 1.125-0.544 1.171-1.167v-8.053c0-0.647-0.525-1.172-1.172-1.172s-1.172 0.525-1.172 1.172v0 8.049c0.046 0.628 0.544 1.125 1.167 1.171h0.004zM9.626 21.012c0.316-0.010 0.597-0.157 0.784-0.385l0.001-0.002c0.194-0.212 0.331-0.479 0.385-0.775l0.002-0.010v-8.049c-0.046-0.628-0.544-1.125-1.167-1.171h-0.004c-0.625 0.051-1.12 0.546-1.171 1.167v8.054c0.046 0.628 0.544 1.125 1.167 1.171h0.004zM20.417 21.012c0.628-0.046 1.125-0.544 1.171-1.167v-6.097c0-0.647-0.525-1.172-1.172-1.172s-1.172 0.525-1.172 1.172v0 6.093c0.009 0.319 0.162 0.601 0.396 0.783l0.002 0.002c0.211 0.195 0.479 0.333 0.776 0.385l0.009 0.001z"></path>
</svg>
