<!-- Generated by IcoMoon.io -->
<svg version="1.1" xmlns="http://www.w3.org/2000/svg" width="32" height="32" viewBox="0 0 32 32">
<title>plsc</title>
<path d="M30.937 16c0.587 0 1.063 0.512 1.063 1.143 0 0.56-0.377 1.029-0.873 1.125l-0.19 0.018h-16.16c-0.587 0-1.063-0.512-1.063-1.143 0-0.56 0.377-1.029 0.873-1.125l0.19-0.018h16.16zM28.638 20.571c0.528 0 0.969 0.336 1.058 0.782l0.018 0.171v9.522c0 0.469-0.382 0.857-0.885 0.937l-0.19 0.016h-11.566c-0.528 0-0.969-0.336-1.058-0.782l-0.016-0.171v-9.522c0-0.526 0.482-0.953 1.077-0.953 0.53 0 0.969 0.336 1.061 0.782l0.016 0.171v8.571h9.408v-8.571c0-0.469 0.379-0.857 0.882-0.937l0.197-0.016z"></path>
<path d="M24.958 20.571c0 0 0 0 0 0 0.558 0 1.023 0.401 1.123 0.93l0.001 0.007 0.018 0.206v4.571c0 0.001 0 0.001 0 0.002 0 0.631-0.512 1.143-1.143 1.143-0.559 0-1.025-0.402-1.123-0.932l-0.001-0.007-0.018-0.206v-4.571c0-0.631 0.512-1.143 1.143-1.143 0 0 0 0 0 0v0zM20.386 20.571c0 0 0 0 0 0 0.558 0 1.023 0.401 1.123 0.93l0.001 0.007 0.018 0.206v4.571c0 0.001 0 0.002 0 0.002 0 0.631-0.512 1.143-1.143 1.143-0.559 0-1.025-0.402-1.123-0.932l-0.001-0.007-0.018-0.206v-4.571c0-0.631 0.512-1.143 1.143-1.143v0zM26.057 12.777c0.005 0 0.010 0 0.016 0 0.631 0 1.143 0.512 1.143 1.143 0 0.564-0.409 1.033-0.946 1.126l-0.007 0.001-0.206 0.018h-6.965c-0.001 0-0.002 0-0.002 0-0.631 0-1.143-0.512-1.143-1.143 0-0.559 0.402-1.025 0.932-1.123l0.007-0.001 0.206-0.018h6.965z"></path>
<path d="M28.857 6.857c1.634 0 2.976 1.246 3.129 2.841l0.014 0.302v3.714h-2.096v-3.714c-0.001-0.511-0.368-0.937-0.853-1.028l-0.006-0.001-0.187-0.018h-18.857c-0.511 0.001-0.937 0.368-1.028 0.853l-0.001 0.007-0.018 0.187v18.857c0 0.514 0.37 0.942 0.859 1.029l0.187 0.018h3.714v2.096h-3.714c0 0-0.001 0-0.001 0-1.63 0-2.969-1.24-3.127-2.828l-0.001-0.013-0.014-0.302v-18.857c0-1.634 1.246-2.976 2.841-3.129l0.302-0.014h18.857z"></path>
<path d="M24 0c1.778 0 3.239 1.353 3.411 3.085l0.001 0.014 0.016 0.329v4.443h-2.286v-4.443c0 0 0 0 0 0 0-0.558-0.401-1.023-0.93-1.123l-0.007-0.001-0.206-0.018h-20.571c0 0 0 0 0 0-0.558 0-1.023 0.401-1.123 0.93l-0.001 0.007-0.018 0.206v20.571c0 0 0 0 0 0 0 0.558 0.401 1.023 0.93 1.123l0.007 0.001 0.206 0.018h4.283v2.286h-4.283c-1.778 0-3.239-1.353-3.411-3.085l-0.001-0.014-0.016-0.329v-20.571c0-1.778 1.353-3.239 3.085-3.411l0.014-0.001 0.329-0.016h20.571z"></path>
</svg>
