<!-- Generated by IcoMoon.io -->
<svg version="1.1" xmlns="http://www.w3.org/2000/svg" width="32" height="32" viewBox="0 0 32 32">
<title>print</title>
<path d="M29.615 6.062h-3.776v-2.981c0-1.391-0.795-2.783-2.186-2.783h-14.907c-1.391 0-2.981 1.391-2.981 2.783v2.981h-2.783c-1.391 0-2.981 1.391-2.981 2.783v9.143c0 1.391 1.59 2.186 2.981 2.186h2.981v9.342c0 1.391 1.59 2.186 2.981 2.186h14.907c1.391 0 2.186-0.795 2.186-2.186v-9.342h3.776c1.391 0 2.186-0.795 2.186-2.186v-9.143c-0.199-1.391-0.994-2.783-2.385-2.783v0zM7.553 3.081c0-0.397 0.795-1.193 1.193-1.193h15.106c0.398 0 0.398 0.795 0.398 1.193v2.981h-16.696v-2.981zM24.248 29.317c0 0.398-0.398 0.795-0.795 0.795h-15.106c-0.397 0-0.795-0.398-0.795-0.795v-12.323c0-0.398 0.397-0.795 0.795-0.795h15.106c0.398 0 0.795 0.398 0.795 0.795v12.323zM30.012 18.186c0 0.398 0 0.596-0.398 0.596h-3.776v-1.391c0-1.391-0.596-2.981-1.988-2.981h-15.106c-1.391 0-2.981 1.59-2.981 2.981v1.391h-2.783c-0.397 0-1.193 0-1.193-0.596v-9.342c0-0.398 0.795-1.193 1.193-1.193h26.832c0.398 0 0.398 0.596 0.398 1.193l-0.199 9.342zM21.863 19.776h-11.727c-0.398 0-0.795 0.398-0.795 0.795s0.398 0.795 0.795 0.795h11.727c0.398 0 0.795-0.398 0.795-0.795s-0.398-0.795-0.795-0.795v0zM21.863 24.745h-11.727c-0.398 0-0.795 0.398-0.795 0.795s0.398 0.795 0.795 0.795h11.727c0.398 0 0.795-0.398 0.795-0.795s-0.398-0.795-0.795-0.795v0z"></path>
</svg>
