<!-- Generated by IcoMoon.io -->
<svg version="1.1" xmlns="http://www.w3.org/2000/svg" width="31" height="32" viewBox="0 0 31 32">
<title>quse-quxiao</title>
<path d="M18.534 31.614c-0.898 0.186-1.931 0.293-2.989 0.293-6.494 0-12.051-4.019-14.318-9.704l-0.037-0.104c-0.753-1.801-1.191-3.893-1.191-6.088 0-5.449 2.699-10.269 6.834-13.194l0.051-0.034c2.411-1.683 5.403-2.688 8.629-2.688 4.289 0 8.164 1.778 10.926 4.637l0.004 0.004c2.818 2.912 4.555 6.886 4.555 11.266 0 0.007 0 0.013 0 0.020v-0.001c0 0.042 0.001 0.092 0.001 0.141 0 7.547-5.287 13.859-12.359 15.434l-0.105 0.020zM18.005 3.21c-0.746-0.157-1.604-0.247-2.481-0.247-5.29 0-9.818 3.264-11.68 7.889l-0.030 0.085c-0.628 1.485-0.992 3.214-0.992 5.027 0 4.45 2.198 8.388 5.567 10.785l0.041 0.028c1.976 1.389 4.432 2.22 7.081 2.22 3.5 0 6.662-1.45 8.917-3.782l0.003-0.003h0.020c2.301-2.372 3.721-5.611 3.721-9.182 0-0.003 0-0.006 0-0.009v0c0.001-0.055 0.001-0.12 0.001-0.185 0-6.161-4.311-11.314-10.081-12.608l-0.087-0.016zM20.465 23.318l-4.961-5.124-4.961 5.124-2.135-2.196 4.961-5.103-4.961-5.124 2.135-2.176 4.961 5.103 4.961-5.103 2.135 2.176-4.961 5.124 4.961 5.103z"></path>
</svg>
