<!-- Generated by IcoMoon.io -->
<svg version="1.1" xmlns="http://www.w3.org/2000/svg" width="32" height="32" viewBox="0 0 32 32">
<title>quse-tk-gb</title>
<path d="M18.973 16.001l12.524-12.543c0.358-0.358 0.58-0.853 0.58-1.399s-0.222-1.041-0.58-1.399v0l-0.080-0.085c-0.359-0.356-0.853-0.576-1.399-0.576s-1.040 0.22-1.399 0.576v0l-12.524 12.561-12.551-12.561c-0.359-0.356-0.853-0.576-1.399-0.576s-1.040 0.22-1.399 0.576v0l-0.080 0.085c-0.362 0.356-0.587 0.851-0.587 1.399s0.224 1.043 0.586 1.399v0l12.524 12.543-12.524 12.543c-0.358 0.358-0.58 0.853-0.58 1.399s0.222 1.041 0.58 1.399v0l0.080 0.083c0.359 0.356 0.853 0.576 1.399 0.576s1.040-0.22 1.399-0.576v0l12.524-12.54 12.551 12.54c0.359 0.356 0.853 0.576 1.399 0.576s1.040-0.22 1.399-0.576v0l0.080-0.083c0.358-0.358 0.58-0.853 0.58-1.399s-0.222-1.041-0.58-1.399v0z"></path>
</svg>
