<!-- Generated by IcoMoon.io -->
<svg version="1.1" xmlns="http://www.w3.org/2000/svg" width="32" height="32" viewBox="0 0 32 32">
<title>return</title>
<path d="M10.443 4.258c0.322 0 0.583 0.261 0.583 0.583v0 4.258h11.652c5.149 0 9.322 4.173 9.322 9.322s-4.173 9.322-9.322 9.322h-15.731c-0.196 0-0.39-0.006-0.583-0.017v-2.337c0.134 0.011 0.269 0.018 0.405 0.022l0.178 0.002h15.731c3.861 0 6.991-3.13 6.991-6.991 0-3.802-3.035-6.895-6.814-6.989l-0.178-0.002h-11.652v4.258c0 0 0 0 0 0 0 0.077-0.015 0.151-0.042 0.218l0.001-0.004-0.031 0.066c-0.101 0.181-0.292 0.302-0.51 0.302-0.103 0-0.2-0.027-0.284-0.074l0.003 0.002-9.861-5.424c-0.181-0.101-0.302-0.292-0.302-0.51s0.12-0.409 0.299-0.509l0.003-0.002 9.861-5.424c0.081-0.045 0.178-0.072 0.281-0.072v0z"></path>
</svg>
