<!-- Generated by IcoMoon.io -->
<svg version="1.1" xmlns="http://www.w3.org/2000/svg" width="32" height="32" viewBox="0 0 32 32">
<title>rybz</title>
<path fill="#fff" d="M31.985 25.982h-1.988c0.001-0.048 0.001-0.105 0.001-0.163 0-5.347-4.271-9.696-9.587-9.823h-0.012c0-0.594 0.206-1.211 0.206-2.011 3.044-0.325 5.395-2.879 5.395-5.982 0-3.321-2.691-6.013-6.012-6.014v0c-0.060-0.002-0.13-0.004-0.201-0.004-1.997 0-3.753 1.030-4.768 2.587l-0.013 0.022c-0.595-0.219-1.282-0.358-1.997-0.388h-0.014c1.343-2.519 3.953-4.205 6.957-4.205 0.012 0 0.025 0 0.037 0h-0.002c4.417 0 7.998 3.581 7.998 7.998v0c-0.056 2.841-1.539 5.325-3.761 6.767l-0.032 0.020c4.581 1.672 7.793 5.992 7.793 11.062 0 0.047 0 0.095-0.001 0.142v-0.007zM19.988 13.985c-0.049 2.85-1.535 5.342-3.761 6.79l-0.032 0.020c4.581 1.666 7.793 5.982 7.793 11.048 0 0.053 0 0.105-0.001 0.157v-0.008h-1.988c0-5.521-4.476-9.997-9.998-9.997s-9.998 4.476-9.998 9.998v0h-1.988c-0.001-0.044-0.001-0.097-0.001-0.149 0-5.066 3.213-9.382 7.712-11.022l0.082-0.026c-2.259-1.468-3.744-3.96-3.793-6.802v-0.007c-0.007-0.128-0.011-0.277-0.011-0.427 0-4.417 3.581-7.998 7.998-7.998s7.998 3.581 7.998 7.998c0 0.15-0.004 0.3-0.012 0.448l0.001-0.021zM12.012 7.998c-0.003 0-0.007 0-0.011 0-3.313 0-5.998 2.686-5.998 5.998s2.686 5.998 5.998 5.998c3.313 0 5.998-2.686 5.998-5.998 0-0.004 0-0.008 0-0.012v0.001c0-0.027 0.001-0.058 0.001-0.090 0-3.257-2.641-5.898-5.898-5.898-0.032 0-0.063 0-0.095 0.001h0.005z"></path>
</svg>
