<!-- Generated by IcoMoon.io -->
<svg version="1.1" xmlns="http://www.w3.org/2000/svg" width="32" height="32" viewBox="0 0 32 32">
<title>sjbp</title>
<path d="M7.41 19.032l5.053 0.674-0.672-4.716-1.458 1.344c-0.796-0.837-1.91-2.512-1.91-5.388 0-3.924 3.418-6.736 7.074-6.736 3.654 0 7.074 3.458 7.074 5.726 0 0 0.234-0.202 0 0.574 0 0 0.582-0.142 2.088 0.156 0 0-0.068-0.302-0.068-0.73 0-1.522-1.92-7.748-9.094-7.748-5.97 0.002-9.096 4.746-9.096 8.758 0 3.366 1.296 5.55 2.414 6.788l-1.405 1.298zM19.9 24.24l-0.998-5.152-4.582 2.386 1.73 0.858c-0.52 1.128-2.786 5.456-6.956 5.456-4.792 0-7.074-4.22-7.074-7.41 0-3.192 1.92-5.266 3.696-5.994l-0.332-1.066-0.176-1.181s-5.208 2.226-5.208 8.241c0 6.014 4.168 9.432 9.094 9.432 4.628 0 7.912-3.614 8.902-6.514l1.904 0.944zM22.906 11.62c-1.746 0-3.013 0.314-3.93 0.71l-0.86-1.72-2.312 4.602 5.142 1.066-1.056-2.115c0.722-0.29 1.704-0.52 3.016-0.52 4.118 0 7.074 3.226 7.074 7.074 0 4.14-3.71 7.074-7.074 7.074s-4.715-2.022-4.715-2.022l-1.349 1.684c2.27 2.474 6.064 2.358 6.064 2.358 5.745 0 9.094-4.612 9.094-9.094s-3.276-9.096-9.094-9.096z"></path>
</svg>
