<!-- Generated by IcoMoon.io -->
<svg version="1.1" xmlns="http://www.w3.org/2000/svg" width="34" height="32" viewBox="0 0 34 32">
<title>sms</title>
<path d="M17.369 23.705h12.618c0 0 0.001 0 0.001 0 0.393 0 0.75-0.16 1.007-0.418l0-0c0.258-0.259 0.418-0.617 0.418-1.012 0-0 0-0 0-0.001v0-17.943c-0.001-0.788-0.639-1.426-1.426-1.428h-25.704c-0.001 0-0.001 0-0.002 0-0.393 0-0.749 0.16-1.006 0.418l-0 0c-0.258 0.259-0.418 0.617-0.418 1.012 0 0 0 0 0 0.001v-0 17.943c0 0 0 0 0 0 0 0.789 0.638 1.428 1.426 1.431h5.001v4.303zM18.068 26.573l-9.142 5.071c-1.371 0.766-2.498 0.101-2.498-1.481v-3.59h-2.139c-2.37-0.005-4.29-1.928-4.29-4.299 0-0.002 0-0.003 0-0.005v0-17.925c0-0.001 0-0.003 0-0.005 0-1.187 0.479-2.262 1.255-3.042l-0 0c0.775-0.779 1.847-1.262 3.033-1.262 0 0 0 0 0 0h25.7c2.372 0.003 4.294 1.926 4.294 4.299 0 0.002 0 0.003 0 0.005v-0 17.925c0 0.001 0 0.003 0 0.005 0 1.187-0.479 2.262-1.255 3.042l0-0c-0.775 0.779-1.847 1.261-3.033 1.262h-0zM9.276 15.814c-0.79-0.001-1.48-0.429-1.85-1.066l-0.005-0.010c-0.181-0.309-0.287-0.68-0.287-1.076s0.107-0.768 0.293-1.087l-0.006 0.010c0.376-0.647 1.066-1.076 1.856-1.076h0c1.184 0.004 2.141 0.964 2.141 2.148 0 0.002 0 0.003 0 0.005v-0c0 0.001 0 0.003 0 0.005 0 1.182-0.954 2.14-2.134 2.148h-0.001zM17.131 15.814c-0.79-0.001-1.48-0.429-1.85-1.066l-0.005-0.010c-0.181-0.309-0.287-0.68-0.287-1.076s0.107-0.768 0.293-1.087l-0.006 0.010c0.376-0.647 1.066-1.076 1.856-1.076h0c1.183 0.003 2.141 0.962 2.141 2.146 0 0.002 0 0.005 0 0.007v-0c0 0.002 0 0.004 0 0.007 0 1.18-0.953 2.138-2.132 2.146h-0.001zM24.986 15.814c-0.79-0.001-1.48-0.429-1.85-1.066l-0.006-0.010c-0.181-0.309-0.287-0.68-0.287-1.076s0.107-0.768 0.293-1.087l-0.006 0.010c0.376-0.647 1.066-1.076 1.856-1.076h0c1.183 0.003 2.141 0.962 2.141 2.146 0 0.002 0 0.005 0 0.007v-0c0 0.002 0 0.004 0 0.007 0 1.181-0.954 2.139-2.134 2.146h-0.001z"></path>
</svg>
