<!-- Generated by IcoMoon.io -->
<svg version="1.1" xmlns="http://www.w3.org/2000/svg" width="32" height="32" viewBox="0 0 32 32">
<title>tuimo</title>
<path d="M16 32c-8.817 0-16-7.173-16-16 0-8.817 7.173-16 16-16s16 7.173 16 16c-0.010 8.817-7.183 16-16 16zM16 1.827c-7.817 0-14.183 6.365-14.183 14.183s6.365 14.183 14.183 14.183 14.183-6.365 14.183-14.183c-0.010-7.827-6.365-14.183-14.183-14.183zM16 21.173c-2.433 0-4.413-1.981-4.413-4.413 0-1.808 1.096-3.413 2.769-4.077l1.644-2.673 1.644 2.673c1.673 0.663 2.769 2.269 2.769 4.077 0 2.433-1.981 4.413-4.413 4.413zM16 13.481l-0.442 0.712-0.327 0.106c-1.096 0.337-1.827 1.327-1.827 2.462 0 1.433 1.163 2.596 2.596 2.596s2.596-1.163 2.596-2.596c0-1.135-0.731-2.125-1.827-2.462l-0.327-0.106-0.442-0.712zM16 6.269c-0.5 0-0.904-0.404-0.904-0.904v-3.875c0-0.5 0.404-0.904 0.904-0.904s0.904 0.404 0.904 0.904v3.875c0 0.5-0.404 0.904-0.904 0.904zM16 31.798c-0.5 0-0.904-0.404-0.904-0.904v-3.875c0-0.5 0.404-0.904 0.904-0.904s0.904 0.404 0.904 0.904v3.875c0 0.5-0.404 0.904-0.904 0.904zM5.173 17.096h-3.875c-0.5 0-0.904-0.404-0.904-0.904s0.404-0.904 0.904-0.904h3.875c0.5 0 0.904 0.404 0.904 0.904s-0.404 0.904-0.904 0.904zM30.702 17.096h-3.875c-0.5 0-0.904-0.404-0.904-0.904s0.404-0.904 0.904-0.904h3.875c0.5 0 0.904 0.404 0.904 0.904s-0.404 0.904-0.904 0.904zM5.606 27.49c-0.231 0-0.462-0.087-0.644-0.269-0.356-0.356-0.356-0.933 0-1.288l2.74-2.74c0.164-0.16 0.389-0.259 0.636-0.259 0.503 0 0.911 0.408 0.911 0.911 0 0.247-0.099 0.472-0.259 0.636l-2.74 2.74c-0.183 0.183-0.413 0.269-0.644 0.269zM23.654 9.442c-0.231 0-0.462-0.087-0.644-0.269-0.356-0.356-0.356-0.933 0-1.288l2.74-2.74c0.164-0.16 0.389-0.259 0.636-0.259 0.503 0 0.911 0.408 0.911 0.911 0 0.247-0.099 0.472-0.259 0.636l-2.74 2.74c-0.183 0.183-0.413 0.269-0.644 0.269zM26.394 27.49c-0.231 0-0.462-0.087-0.644-0.269l-2.74-2.74c-0.16-0.164-0.259-0.389-0.259-0.636 0-0.503 0.408-0.911 0.911-0.911 0.247 0 0.472 0.099 0.636 0.259l2.74 2.74c0.356 0.356 0.356 0.933 0 1.288-0.183 0.183-0.413 0.269-0.644 0.269zM8.346 9.442c-0.231 0-0.462-0.087-0.644-0.269l-2.74-2.74c-0.16-0.164-0.259-0.388-0.259-0.636 0-0.503 0.408-0.911 0.911-0.911 0.247 0 0.472 0.099 0.636 0.259l2.74 2.74c0.356 0.356 0.356 0.933 0 1.288-0.183 0.183-0.413 0.269-0.644 0.269z"></path>
</svg>
