<!-- Generated by IcoMoon.io -->
<svg version="1.1" xmlns="http://www.w3.org/2000/svg" width="32" height="32" viewBox="0 0 32 32">
<title>upload</title>
<path fill="#ddd" d="M32 20.114v10.286c0 0.914-0.686 1.6-1.6 1.6h-28.8c-0.914 0-1.6-0.686-1.6-1.6v-10.286c0-0.914 0.686-1.6 1.6-1.6s1.6 0.686 1.6 1.6v8.914h25.829v-8.914c0-0.914 0.686-1.6 1.6-1.6s1.371 0.686 1.371 1.6v0zM15.086 0.457c0.229-0.229 0.457-0.457 0.914-0.457s0.686 0.229 1.143 0.457l9.371 9.371c0.686 0.686 0.686 1.6 0 2.057-0.229 0.229-0.686 0.457-1.143 0.457s-0.686-0.229-1.143-0.457l-6.629-6.857v18.514c0 0.914-0.686 1.6-1.6 1.6s-1.371-0.686-1.371-1.371v-18.743l-6.857 6.857c-0.229 0.457-0.914 0.686-1.371 0.457s-0.914-0.457-1.143-1.143c-0.229-0.457 0-1.143 0.457-1.371l9.371-9.371z"></path>
</svg>
