<!-- Generated by IcoMoon.io -->
<svg version="1.1" xmlns="http://www.w3.org/2000/svg" width="32" height="32" viewBox="0 0 32 32">
<title>yjtp</title>
<path d="M16.424 20.854c0.073 0.051 0.134 0.113 0.184 0.183l0.002 0.002 3.857 5.543c0.234 0.337 0.151 0.799-0.185 1.034-0.118 0.083-0.265 0.133-0.424 0.133h-7.714c-0.41 0-0.743-0.332-0.743-0.743 0-0.159 0.050-0.306 0.135-0.427l-0.002 0.002 3.857-5.543c0.234-0.337 0.697-0.42 1.034-0.185zM28.041 4.251c2.182 0 3.924 1.848 3.958 4.105l0.001 0.069v12.76c0 2.265-1.72 4.136-3.893 4.173l-0.066 0.001h-6.268c-0.592 0-1.072-0.48-1.072-1.072 0-0.584 0.466-1.058 1.047-1.072h6.293c0.974 0 1.798-0.874 1.814-1.996v-12.794c0-1.126-0.814-2.012-1.785-2.029h-24.111c-0.974 0-1.798 0.874-1.814 1.996v12.794c0 1.126 0.814 2.012 1.785 2.029h6.271c0.592 0 1.072 0.48 1.072 1.072 0 0.584-0.466 1.058-1.047 1.072h-6.266c-2.182 0-3.924-1.848-3.958-4.105l-0.001-0.069v-12.76c0-2.265 1.72-4.136 3.893-4.173l0.066-0.001h24.082zM20.864 17.407c0.343 0.299 0.378 0.82 0.079 1.163s-0.821 0.378-1.164 0.079c-2.794-2.438-5.282-2.325-8.028 0.007-0.347 0.295-0.868 0.252-1.162-0.095s-0.253-0.867 0.095-1.162c3.342-2.839 6.743-2.994 10.181 0.007zM24.972 12.952c0.343 0.3 0.377 0.821 0.077 1.163s-0.821 0.377-1.164 0.077c-5.605-4.91-10.748-4.674-16.241 0.007-0.347 0.295-0.867 0.254-1.163-0.092s-0.254-0.867 0.092-1.162c6.089-5.191 12.148-5.468 18.398 0.007z"></path>
</svg>
