<!-- Generated by IcoMoon.io -->
<svg version="1.1" xmlns="http://www.w3.org/2000/svg" width="32" height="32" viewBox="0 0 32 32">
<title>ysb</title>
<path d="M28.276 5.611c-0.207-0.193-0.433-0.401-0.687-0.64-0.719-0.654-1.423-1.312-2.11-1.935-0.079-0.064-0.079-0.064-0.161-0.143-0.912-0.815-1.663-1.488-2.221-1.967-0.318-0.272-0.59-0.479-0.769-0.622-0.129-0.097-0.225-0.161-0.336-0.207-0.129-0.064-0.24-0.097-0.415-0.097-0.447 0.014-0.801 0.368-0.801 0.815v7.195h7.195l-0.801-0.801v23.993l0.801-0.801h-20.778c-1.327 0-2.399-1.073-2.399-2.399v-27.154l-0.801 0.801h14.386c0.447 0 0.801-0.35 0.801-0.801 0-0.447-0.35-0.801-0.801-0.801h-15.183v27.955c0 2.206 1.792 3.998 3.998 3.998h21.579v-25.555h-7.195l0.797 0.801v-6.397c0 0.433-0.35 0.769-0.769 0.783-0.143 0-0.225-0.014-0.304-0.064-0.014 0 0.032 0.014 0.079 0.046 0.143 0.111 0.383 0.286 0.672 0.544 0.544 0.465 1.28 1.119 2.174 1.917 0.079 0.064 0.079 0.064 0.161 0.143 0.672 0.608 1.391 1.262 2.095 1.917 0.257 0.225 0.479 0.447 0.687 0.64 0.129 0.111 0.207 0.193 0.257 0.24 0.318 0.304 0.83 0.286 1.134-0.032s0.286-0.83-0.032-1.134c-0.047-0.029-0.125-0.107-0.254-0.236zM3.213 14.437h-3.197v13.588h31.967v-13.588h-28.77zM8.823 24.344h4.86v1.262h-6.762v-1.023l4.699-6.794h-4.666v-1.28h6.587v1.008l-4.716 6.826zM16.704 25.606h-1.566v-9.093h1.566v9.093zM20.219 22.234v3.372h-1.584v-9.093h3.483c1.023 0 1.824 0.272 2.414 0.797 0.59 0.529 0.894 1.23 0.894 2.095 0 0.894-0.286 1.584-0.88 2.078-0.59 0.497-1.405 0.737-2.46 0.737h-1.87v0.014zM20.219 20.958h1.902c0.558 0 0.991-0.129 1.28-0.401 0.286-0.272 0.447-0.64 0.447-1.151 0-0.497-0.143-0.88-0.447-1.184s-0.719-0.447-1.23-0.447h-1.935v3.182h-0.018z"></path>
</svg>
