<!-- Generated by IcoMoon.io -->
<svg version="1.1" xmlns="http://www.w3.org/2000/svg" width="32" height="32" viewBox="0 0 32 32">
<title>zip</title>
<path fill="#f95f5d" d="M0.003 10.801h31.996v10.398h-31.996z"></path>
<path fill="#55c7f7" d="M31.999 10.801v-8.285c0-1.027-0.919-1.943-2.012-1.943h-27.975c-1.093 0-2.012 0.915-2.012 1.943v8.285h32z"></path>
<path fill="#7ecf3b" d="M0.003 21.199v8.285c0 1.027 0.912 1.943 1.997 1.943h28.002c1.085 0 1.997-0.915 1.997-1.943v-8.285h-31.996z"></path>
<path fill="#fdaf42" d="M12.513 0.574h7.142v30.853h-7.142z"></path>
<path fill="#fff" d="M19.655 13.945v4.341h-7.481v-4.341h7.481zM20.856 12.172h-9.884c-0.17 0-0.456 0.17-0.456 0.456v6.914c0 0.17 0.17 0.456 0.456 0.456h9.884c0.17 0 0.456-0.17 0.456-0.456v-6.914c-0.112-0.34-0.286-0.456-0.456-0.456z"></path>
</svg>
