<!-- Generated by IcoMoon.io -->
<svg version="1.1" xmlns="http://www.w3.org/2000/svg" width="21" height="32" viewBox="0 0 21 32">
<title>zuobiao</title>
<path fill="#3687d9" d="M10.051 27.534c-1.698-1.987-3.392-4.179-4.976-6.454l-0.181-0.275c-2.379-2.911-4.093-6.457-4.855-10.345l-0.024-0.15c0.023-3.825 2.136-7.151 5.253-8.896l0.052-0.027c1.532-0.873 3.366-1.388 5.321-1.388s3.789 0.515 5.375 1.416l-0.054-0.028c3.169 1.772 5.282 5.098 5.305 8.92v0.003c-0.787 4.035-2.494 7.581-4.897 10.539l0.035-0.044c-2.849 3.913-4.584 6.156-5.174 6.729-0.146 0.161-0.355 0.262-0.589 0.262 0 0-0.001 0-0.001 0v0c-0.232-0.007-0.44-0.106-0.589-0.262v0zM4.174 4.024c-1.656 1.586-2.685 3.816-2.685 6.285 0 0.001 0 0.001 0 0.002v0c0.615 3.237 1.949 6.089 3.831 8.491l-0.032-0.043c2.292 3.291 4.060 5.681 5.354 7.188q1.94-2.259 5.354-7.188c1.857-2.356 3.191-5.21 3.779-8.328l0.019-0.121c-0.030-3.714-2.335-6.882-5.589-8.181l-0.060-0.021c-1.037-0.431-2.241-0.681-3.504-0.681-2.511 0-4.791 0.99-6.471 2.6l0.003-0.003zM13.915 12.537c-0.804 0.78-1.902 1.261-3.113 1.261-0.011 0-0.022 0-0.032 0h0.002c-0.001 0-0.002 0-0.003 0-1.204 0-2.295-0.481-3.092-1.261l0.001 0.001c-0.798-0.767-1.293-1.844-1.293-3.036 0-0.003 0-0.006 0-0.009v0c0.001-1.185 0.497-2.253 1.292-3.011l0.002-0.002c0.8-0.778 1.889-1.263 3.092-1.277h0.003c1.221 0.014 2.326 0.498 3.145 1.279l-0.002-0.002c0.798 0.765 1.294 1.839 1.294 3.029s-0.496 2.264-1.292 3.027l-0.001 0.001zM8.725 11.522c0.524 0.496 1.233 0.8 2.013 0.8 0.797 0 1.519-0.318 2.048-0.834l-0.001 0.001c0.522-0.497 0.847-1.197 0.847-1.973s-0.325-1.476-0.846-1.972l-0.001-0.001c-0.528-0.515-1.25-0.833-2.047-0.833-0.78 0-1.489 0.305-2.014 0.802l0.001-0.001c-0.535 0.503-0.867 1.216-0.867 2.006s0.333 1.502 0.866 2.004l0.001 0.001zM19.809 25.684c0.819 0.415 1.387 1.223 1.457 2.169v0.009c-0.115 1.375-1.212 2.407-3.324 3.094-2.187 0.662-4.7 1.044-7.302 1.044s-5.115-0.381-7.487-1.091l0.185 0.047c-2.096-0.688-3.209-1.719-3.324-3.094 0.076-0.971 0.647-1.793 1.459-2.219l0.015-0.007c1.216-0.719 2.639-1.241 4.156-1.481l0.068-0.009c0.034-0.006 0.072-0.009 0.112-0.009 0.161 0 0.31 0.052 0.43 0.141l-0.002-0.001c0.172 0.089 0.292 0.258 0.311 0.456v0.002c0.013 0.051 0.021 0.109 0.021 0.168 0 0.342-0.248 0.626-0.573 0.682l-0.004 0.001c-1.262 0.198-2.396 0.582-3.433 1.126l0.061-0.029c-0.548 0.193-0.968 0.624-1.142 1.166l-0.004 0.013c0.033 0.606 0.851 1.195 2.472 1.768 2.003 0.6 4.305 0.945 6.688 0.945s4.685-0.345 6.859-0.989l-0.171 0.043q2.407-0.86 2.456-1.768c-0.164-0.548-0.575-0.975-1.101-1.159l-0.012-0.004c-0.957-0.489-2.067-0.865-3.236-1.070l-0.071-0.010c-0.198-0.050-0.362-0.167-0.473-0.325l-0.002-0.003c-0.076-0.107-0.121-0.24-0.121-0.384 0-0.061 0.008-0.121 0.024-0.178l-0.001 0.005c0.037-0.189 0.151-0.347 0.308-0.44l0.003-0.002c0.118-0.070 0.26-0.111 0.412-0.111 0.051 0 0.101 0.005 0.15 0.014l-0.005-0.001c1.556 0.249 2.951 0.771 4.195 1.519l-0.053-0.029z"></path>
</svg>
